<mxfile host="app.diagrams.net" modified="2020-11-24T15:20:36.224Z" agent="5.0 (Macintosh; Intel Mac OS X 11_0_0) AppleWebKit/537.36 (KHTML, like Gecko) Chrome/86.0.4240.198 Safari/537.36" etag="NWpVgzGHFUNrB0FW6POb" version="13.10.2" type="github">
  <diagram id="R2lEEEUBdFMjLlhIrx00" name="Page-1">
    <mxGraphModel dx="1426" dy="801" grid="1" gridSize="10" guides="1" tooltips="1" connect="1" arrows="1" fold="1" page="1" pageScale="1" pageWidth="850" pageHeight="1100" math="0" shadow="0" extFonts="Permanent Marker^https://fonts.googleapis.com/css?family=Permanent+Marker">
      <root>
        <mxCell id="0" />
        <mxCell id="1" parent="0" />
        <mxCell id="oOxEvFH_zBwJxt1--HLs-2" value="supplier" style="rounded=0;whiteSpace=wrap;html=1;" vertex="1" parent="1">
          <mxGeometry x="200" y="750" width="100" height="40" as="geometry" />
        </mxCell>
        <mxCell id="oOxEvFH_zBwJxt1--HLs-12" value="goods" style="whiteSpace=wrap;html=1;align=center;" vertex="1" parent="1">
          <mxGeometry x="540" y="750" width="100" height="40" as="geometry" />
        </mxCell>
        <mxCell id="oOxEvFH_zBwJxt1--HLs-22" style="edgeStyle=orthogonalEdgeStyle;rounded=0;orthogonalLoop=1;jettySize=auto;html=1;" edge="1" parent="1" source="oOxEvFH_zBwJxt1--HLs-13" target="oOxEvFH_zBwJxt1--HLs-12">
          <mxGeometry relative="1" as="geometry" />
        </mxCell>
        <mxCell id="oOxEvFH_zBwJxt1--HLs-13" value="&lt;span style=&quot;border-bottom: 1px dotted&quot;&gt;goods_id&lt;/span&gt;" style="ellipse;whiteSpace=wrap;html=1;align=center;fontStyle=4" vertex="1" parent="1">
          <mxGeometry x="440" y="520" width="100" height="40" as="geometry" />
        </mxCell>
        <mxCell id="oOxEvFH_zBwJxt1--HLs-14" value="supplies" style="shape=rhombus;perimeter=rhombusPerimeter;whiteSpace=wrap;html=1;align=center;" vertex="1" parent="1">
          <mxGeometry x="365" y="740" width="120" height="60" as="geometry" />
        </mxCell>
        <mxCell id="oOxEvFH_zBwJxt1--HLs-15" value="" style="endArrow=none;html=1;rounded=0;exitX=1;exitY=0.5;exitDx=0;exitDy=0;entryX=0;entryY=0.5;entryDx=0;entryDy=0;" edge="1" parent="1" source="oOxEvFH_zBwJxt1--HLs-2" target="oOxEvFH_zBwJxt1--HLs-14">
          <mxGeometry relative="1" as="geometry">
            <mxPoint x="270" y="825" as="sourcePoint" />
            <mxPoint x="430" y="825" as="targetPoint" />
          </mxGeometry>
        </mxCell>
        <mxCell id="oOxEvFH_zBwJxt1--HLs-19" value="" style="edgeStyle=entityRelationEdgeStyle;fontSize=12;html=1;endArrow=ERmany;exitX=1;exitY=0.5;exitDx=0;exitDy=0;entryX=0;entryY=0.5;entryDx=0;entryDy=0;" edge="1" parent="1" source="oOxEvFH_zBwJxt1--HLs-14" target="oOxEvFH_zBwJxt1--HLs-12">
          <mxGeometry width="100" height="100" relative="1" as="geometry">
            <mxPoint x="410" y="930" as="sourcePoint" />
            <mxPoint x="510" y="830" as="targetPoint" />
          </mxGeometry>
        </mxCell>
        <mxCell id="oOxEvFH_zBwJxt1--HLs-24" value="name" style="ellipse;whiteSpace=wrap;html=1;align=center;" vertex="1" parent="1">
          <mxGeometry x="440" y="570" width="100" height="40" as="geometry" />
        </mxCell>
        <mxCell id="oOxEvFH_zBwJxt1--HLs-25" value="price" style="ellipse;whiteSpace=wrap;html=1;align=center;" vertex="1" parent="1">
          <mxGeometry x="440" y="620" width="100" height="40" as="geometry" />
        </mxCell>
        <mxCell id="oOxEvFH_zBwJxt1--HLs-26" value="category" style="whiteSpace=wrap;html=1;align=center;" vertex="1" parent="1">
          <mxGeometry x="865" y="750" width="90" height="40" as="geometry" />
        </mxCell>
        <mxCell id="oOxEvFH_zBwJxt1--HLs-31" value="belongs" style="shape=rhombus;perimeter=rhombusPerimeter;whiteSpace=wrap;html=1;align=center;" vertex="1" parent="1">
          <mxGeometry x="690" y="740" width="120" height="60" as="geometry" />
        </mxCell>
        <mxCell id="oOxEvFH_zBwJxt1--HLs-36" value="" style="edgeStyle=orthogonalEdgeStyle;rounded=0;orthogonalLoop=1;jettySize=auto;html=1;" edge="1" parent="1" source="oOxEvFH_zBwJxt1--HLs-35" target="oOxEvFH_zBwJxt1--HLs-26">
          <mxGeometry relative="1" as="geometry" />
        </mxCell>
        <mxCell id="oOxEvFH_zBwJxt1--HLs-35" value="name" style="ellipse;whiteSpace=wrap;html=1;align=center;fontStyle=4" vertex="1" parent="1">
          <mxGeometry x="860" y="670" width="100" height="40" as="geometry" />
        </mxCell>
        <mxCell id="oOxEvFH_zBwJxt1--HLs-39" value="customer" style="whiteSpace=wrap;html=1;align=center;" vertex="1" parent="1">
          <mxGeometry x="170" y="1080" width="100" height="40" as="geometry" />
        </mxCell>
        <mxCell id="oOxEvFH_zBwJxt1--HLs-51" style="edgeStyle=orthogonalEdgeStyle;rounded=0;orthogonalLoop=1;jettySize=auto;html=1;exitX=1;exitY=0.5;exitDx=0;exitDy=0;entryX=0;entryY=0.5;entryDx=0;entryDy=0;" edge="1" parent="1" source="oOxEvFH_zBwJxt1--HLs-50" target="oOxEvFH_zBwJxt1--HLs-39">
          <mxGeometry relative="1" as="geometry" />
        </mxCell>
        <mxCell id="oOxEvFH_zBwJxt1--HLs-50" value="brithdate" style="ellipse;whiteSpace=wrap;html=1;align=center;" vertex="1" parent="1">
          <mxGeometry x="10" y="1180" width="100" height="40" as="geometry" />
        </mxCell>
        <mxCell id="oOxEvFH_zBwJxt1--HLs-53" style="edgeStyle=orthogonalEdgeStyle;rounded=0;orthogonalLoop=1;jettySize=auto;html=1;exitX=1;exitY=0.5;exitDx=0;exitDy=0;entryX=0;entryY=0.5;entryDx=0;entryDy=0;" edge="1" parent="1" source="oOxEvFH_zBwJxt1--HLs-52" target="oOxEvFH_zBwJxt1--HLs-39">
          <mxGeometry relative="1" as="geometry" />
        </mxCell>
        <mxCell id="oOxEvFH_zBwJxt1--HLs-52" value="customer_id" style="ellipse;whiteSpace=wrap;html=1;align=center;fontStyle=4;" vertex="1" parent="1">
          <mxGeometry x="10" y="980" width="100" height="40" as="geometry" />
        </mxCell>
        <mxCell id="oOxEvFH_zBwJxt1--HLs-55" style="edgeStyle=orthogonalEdgeStyle;rounded=0;orthogonalLoop=1;jettySize=auto;html=1;entryX=0;entryY=0.5;entryDx=0;entryDy=0;" edge="1" parent="1" source="oOxEvFH_zBwJxt1--HLs-54" target="oOxEvFH_zBwJxt1--HLs-39">
          <mxGeometry relative="1" as="geometry" />
        </mxCell>
        <mxCell id="oOxEvFH_zBwJxt1--HLs-54" value="name" style="ellipse;whiteSpace=wrap;html=1;align=center;" vertex="1" parent="1">
          <mxGeometry x="10" y="1030" width="100" height="40" as="geometry" />
        </mxCell>
        <mxCell id="oOxEvFH_zBwJxt1--HLs-57" style="edgeStyle=orthogonalEdgeStyle;rounded=0;orthogonalLoop=1;jettySize=auto;html=1;" edge="1" parent="1" source="oOxEvFH_zBwJxt1--HLs-56" target="oOxEvFH_zBwJxt1--HLs-39">
          <mxGeometry relative="1" as="geometry" />
        </mxCell>
        <mxCell id="oOxEvFH_zBwJxt1--HLs-56" value="address" style="ellipse;whiteSpace=wrap;html=1;align=center;" vertex="1" parent="1">
          <mxGeometry x="10" y="1080" width="100" height="40" as="geometry" />
        </mxCell>
        <mxCell id="oOxEvFH_zBwJxt1--HLs-61" style="edgeStyle=orthogonalEdgeStyle;rounded=0;orthogonalLoop=1;jettySize=auto;html=1;entryX=0;entryY=0.5;entryDx=0;entryDy=0;" edge="1" parent="1" source="oOxEvFH_zBwJxt1--HLs-59" target="oOxEvFH_zBwJxt1--HLs-39">
          <mxGeometry relative="1" as="geometry" />
        </mxCell>
        <mxCell id="oOxEvFH_zBwJxt1--HLs-59" value="phone" style="ellipse;whiteSpace=wrap;html=1;align=center;" vertex="1" parent="1">
          <mxGeometry x="10" y="1130" width="100" height="40" as="geometry" />
        </mxCell>
        <mxCell id="oOxEvFH_zBwJxt1--HLs-62" value="owns" style="shape=rhombus;perimeter=rhombusPerimeter;whiteSpace=wrap;html=1;align=center;" vertex="1" parent="1">
          <mxGeometry x="320" y="1070" width="120" height="60" as="geometry" />
        </mxCell>
        <mxCell id="oOxEvFH_zBwJxt1--HLs-65" value="shoppint_cart" style="whiteSpace=wrap;html=1;align=center;" vertex="1" parent="1">
          <mxGeometry x="500" y="1080" width="100" height="40" as="geometry" />
        </mxCell>
        <mxCell id="oOxEvFH_zBwJxt1--HLs-66" value="" style="edgeStyle=entityRelationEdgeStyle;fontSize=12;html=1;endArrow=ERone;endFill=1;exitX=1;exitY=0.5;exitDx=0;exitDy=0;entryX=0;entryY=0.5;entryDx=0;entryDy=0;" edge="1" parent="1" source="oOxEvFH_zBwJxt1--HLs-62" target="oOxEvFH_zBwJxt1--HLs-65">
          <mxGeometry width="100" height="100" relative="1" as="geometry">
            <mxPoint x="520" y="1010" as="sourcePoint" />
            <mxPoint x="620" y="910" as="targetPoint" />
          </mxGeometry>
        </mxCell>
        <mxCell id="oOxEvFH_zBwJxt1--HLs-67" value="1" style="edgeLabel;html=1;align=center;verticalAlign=middle;resizable=0;points=[];" vertex="1" connectable="0" parent="oOxEvFH_zBwJxt1--HLs-66">
          <mxGeometry x="-0.1714" y="2" relative="1" as="geometry">
            <mxPoint as="offset" />
          </mxGeometry>
        </mxCell>
        <mxCell id="oOxEvFH_zBwJxt1--HLs-73" style="edgeStyle=orthogonalEdgeStyle;rounded=0;orthogonalLoop=1;jettySize=auto;html=1;entryX=0.5;entryY=1;entryDx=0;entryDy=0;" edge="1" parent="1" source="oOxEvFH_zBwJxt1--HLs-68" target="oOxEvFH_zBwJxt1--HLs-65">
          <mxGeometry relative="1" as="geometry" />
        </mxCell>
        <mxCell id="oOxEvFH_zBwJxt1--HLs-68" value="cost" style="ellipse;whiteSpace=wrap;html=1;align=center;dashed=1;" vertex="1" parent="1">
          <mxGeometry x="385" y="1220" width="100" height="40" as="geometry" />
        </mxCell>
        <mxCell id="oOxEvFH_zBwJxt1--HLs-75" style="edgeStyle=orthogonalEdgeStyle;rounded=0;orthogonalLoop=1;jettySize=auto;html=1;entryX=0.5;entryY=1;entryDx=0;entryDy=0;" edge="1" parent="1" source="oOxEvFH_zBwJxt1--HLs-69" target="oOxEvFH_zBwJxt1--HLs-65">
          <mxGeometry relative="1" as="geometry" />
        </mxCell>
        <mxCell id="oOxEvFH_zBwJxt1--HLs-69" value="cart_id" style="ellipse;whiteSpace=wrap;html=1;align=center;fontStyle=4;" vertex="1" parent="1">
          <mxGeometry x="385" y="1170" width="100" height="40" as="geometry" />
        </mxCell>
        <mxCell id="oOxEvFH_zBwJxt1--HLs-77" value="contains" style="shape=rhombus;perimeter=rhombusPerimeter;whiteSpace=wrap;html=1;align=center;" vertex="1" parent="1">
          <mxGeometry x="530" y="815" width="120" height="60" as="geometry" />
        </mxCell>
        <mxCell id="oOxEvFH_zBwJxt1--HLs-80" value="order" style="whiteSpace=wrap;html=1;align=center;" vertex="1" parent="1">
          <mxGeometry x="330" y="940" width="100" height="40" as="geometry" />
        </mxCell>
        <mxCell id="oOxEvFH_zBwJxt1--HLs-86" style="edgeStyle=orthogonalEdgeStyle;rounded=0;orthogonalLoop=1;jettySize=auto;html=1;entryX=0;entryY=0.5;entryDx=0;entryDy=0;" edge="1" parent="1" source="oOxEvFH_zBwJxt1--HLs-85" target="oOxEvFH_zBwJxt1--HLs-39">
          <mxGeometry relative="1" as="geometry" />
        </mxCell>
        <mxCell id="oOxEvFH_zBwJxt1--HLs-85" value="email" style="ellipse;whiteSpace=wrap;html=1;align=center;" vertex="1" parent="1">
          <mxGeometry x="10" y="1230" width="100" height="40" as="geometry" />
        </mxCell>
        <mxCell id="oOxEvFH_zBwJxt1--HLs-90" value="" style="endArrow=none;html=1;rounded=0;entryX=0;entryY=0.5;entryDx=0;entryDy=0;exitX=1;exitY=0.5;exitDx=0;exitDy=0;" edge="1" parent="1" source="oOxEvFH_zBwJxt1--HLs-12" target="oOxEvFH_zBwJxt1--HLs-31">
          <mxGeometry relative="1" as="geometry">
            <mxPoint x="490" y="940" as="sourcePoint" />
            <mxPoint x="650" y="940" as="targetPoint" />
          </mxGeometry>
        </mxCell>
        <mxCell id="oOxEvFH_zBwJxt1--HLs-91" value="" style="edgeStyle=entityRelationEdgeStyle;fontSize=12;html=1;endArrow=ERmany;entryX=0;entryY=0.5;entryDx=0;entryDy=0;exitX=1;exitY=0.5;exitDx=0;exitDy=0;" edge="1" parent="1" source="oOxEvFH_zBwJxt1--HLs-31" target="oOxEvFH_zBwJxt1--HLs-26">
          <mxGeometry width="100" height="100" relative="1" as="geometry">
            <mxPoint x="520" y="990" as="sourcePoint" />
            <mxPoint x="620" y="890" as="targetPoint" />
          </mxGeometry>
        </mxCell>
        <mxCell id="oOxEvFH_zBwJxt1--HLs-92" value="" style="fontSize=12;html=1;endArrow=ERone;endFill=1;exitX=0;exitY=0.5;exitDx=0;exitDy=0;entryX=0.5;entryY=0;entryDx=0;entryDy=0;edgeStyle=orthogonalEdgeStyle;" edge="1" parent="1" source="oOxEvFH_zBwJxt1--HLs-77" target="oOxEvFH_zBwJxt1--HLs-80">
          <mxGeometry width="100" height="100" relative="1" as="geometry">
            <mxPoint x="520" y="990" as="sourcePoint" />
            <mxPoint x="590" y="790" as="targetPoint" />
          </mxGeometry>
        </mxCell>
        <mxCell id="oOxEvFH_zBwJxt1--HLs-93" value="" style="fontSize=12;html=1;endArrow=ERmany;entryX=0.5;entryY=1;entryDx=0;entryDy=0;exitX=0.5;exitY=0;exitDx=0;exitDy=0;" edge="1" parent="1" source="oOxEvFH_zBwJxt1--HLs-77" target="oOxEvFH_zBwJxt1--HLs-12">
          <mxGeometry width="100" height="100" relative="1" as="geometry">
            <mxPoint x="520" y="990" as="sourcePoint" />
            <mxPoint x="620" y="890" as="targetPoint" />
          </mxGeometry>
        </mxCell>
        <mxCell id="oOxEvFH_zBwJxt1--HLs-96" value="order_id" style="ellipse;whiteSpace=wrap;html=1;align=center;fontStyle=4;" vertex="1" parent="1">
          <mxGeometry x="200" y="880" width="100" height="40" as="geometry" />
        </mxCell>
        <mxCell id="oOxEvFH_zBwJxt1--HLs-97" value="creates" style="shape=rhombus;perimeter=rhombusPerimeter;whiteSpace=wrap;html=1;align=center;" vertex="1" parent="1">
          <mxGeometry x="160" y="970" width="120" height="60" as="geometry" />
        </mxCell>
        <mxCell id="oOxEvFH_zBwJxt1--HLs-98" value="" style="fontSize=12;html=1;endArrow=ERmany;entryX=0;entryY=0.5;entryDx=0;entryDy=0;exitX=0.5;exitY=0;exitDx=0;exitDy=0;edgeStyle=orthogonalEdgeStyle;" edge="1" parent="1" source="oOxEvFH_zBwJxt1--HLs-97" target="oOxEvFH_zBwJxt1--HLs-80">
          <mxGeometry width="100" height="100" relative="1" as="geometry">
            <mxPoint x="520" y="990" as="sourcePoint" />
            <mxPoint x="620" y="890" as="targetPoint" />
          </mxGeometry>
        </mxCell>
        <mxCell id="oOxEvFH_zBwJxt1--HLs-100" value="" style="fontSize=12;html=1;endArrow=ERone;endFill=1;entryX=1;entryY=0.5;entryDx=0;entryDy=0;exitX=0;exitY=0.5;exitDx=0;exitDy=0;" edge="1" parent="1" source="oOxEvFH_zBwJxt1--HLs-62" target="oOxEvFH_zBwJxt1--HLs-39">
          <mxGeometry width="100" height="100" relative="1" as="geometry">
            <mxPoint x="280" y="970" as="sourcePoint" />
            <mxPoint x="330" y="1100" as="targetPoint" />
          </mxGeometry>
        </mxCell>
        <mxCell id="oOxEvFH_zBwJxt1--HLs-101" value="" style="endArrow=none;html=1;rounded=0;exitX=1;exitY=1;exitDx=0;exitDy=0;entryX=0.25;entryY=0;entryDx=0;entryDy=0;" edge="1" parent="1" source="oOxEvFH_zBwJxt1--HLs-96" target="oOxEvFH_zBwJxt1--HLs-80">
          <mxGeometry relative="1" as="geometry">
            <mxPoint x="490" y="940" as="sourcePoint" />
            <mxPoint x="650" y="940" as="targetPoint" />
          </mxGeometry>
        </mxCell>
        <mxCell id="oOxEvFH_zBwJxt1--HLs-103" value="" style="fontSize=12;html=1;endArrow=ERzeroToMany;endFill=1;exitX=0.5;exitY=0;exitDx=0;exitDy=0;entryX=0.5;entryY=1;entryDx=0;entryDy=0;edgeStyle=orthogonalEdgeStyle;" edge="1" parent="1" source="oOxEvFH_zBwJxt1--HLs-39" target="oOxEvFH_zBwJxt1--HLs-97">
          <mxGeometry width="100" height="100" relative="1" as="geometry">
            <mxPoint x="520" y="990" as="sourcePoint" />
            <mxPoint x="620" y="890" as="targetPoint" />
          </mxGeometry>
        </mxCell>
        <mxCell id="oOxEvFH_zBwJxt1--HLs-104" value="quantity" style="ellipse;whiteSpace=wrap;html=1;align=center;" vertex="1" parent="1">
          <mxGeometry x="200" y="830" width="100" height="40" as="geometry" />
        </mxCell>
        <mxCell id="oOxEvFH_zBwJxt1--HLs-108" value="" style="endArrow=none;html=1;rounded=0;exitX=0.25;exitY=0;exitDx=0;exitDy=0;entryX=1;entryY=1;entryDx=0;entryDy=0;" edge="1" parent="1" source="oOxEvFH_zBwJxt1--HLs-80" target="oOxEvFH_zBwJxt1--HLs-104">
          <mxGeometry relative="1" as="geometry">
            <mxPoint x="490" y="940" as="sourcePoint" />
            <mxPoint x="650" y="940" as="targetPoint" />
          </mxGeometry>
        </mxCell>
        <mxCell id="oOxEvFH_zBwJxt1--HLs-109" value="supplier_id" style="ellipse;whiteSpace=wrap;html=1;align=center;fontStyle=4;" vertex="1" parent="1">
          <mxGeometry x="50" y="675" width="100" height="40" as="geometry" />
        </mxCell>
        <mxCell id="oOxEvFH_zBwJxt1--HLs-110" value="name" style="ellipse;whiteSpace=wrap;html=1;align=center;" vertex="1" parent="1">
          <mxGeometry x="50" y="725" width="100" height="40" as="geometry" />
        </mxCell>
        <mxCell id="oOxEvFH_zBwJxt1--HLs-111" value="address" style="ellipse;whiteSpace=wrap;html=1;align=center;" vertex="1" parent="1">
          <mxGeometry x="50" y="775" width="100" height="40" as="geometry" />
        </mxCell>
        <mxCell id="oOxEvFH_zBwJxt1--HLs-112" value="phone" style="ellipse;whiteSpace=wrap;html=1;align=center;" vertex="1" parent="1">
          <mxGeometry x="50" y="825" width="100" height="40" as="geometry" />
        </mxCell>
        <mxCell id="oOxEvFH_zBwJxt1--HLs-113" value="" style="endArrow=none;html=1;rounded=0;exitX=1;exitY=0.5;exitDx=0;exitDy=0;entryX=0;entryY=0.5;entryDx=0;entryDy=0;edgeStyle=orthogonalEdgeStyle;" edge="1" parent="1" source="oOxEvFH_zBwJxt1--HLs-110" target="oOxEvFH_zBwJxt1--HLs-2">
          <mxGeometry relative="1" as="geometry">
            <mxPoint x="190" y="679.5" as="sourcePoint" />
            <mxPoint x="350" y="679.5" as="targetPoint" />
          </mxGeometry>
        </mxCell>
        <mxCell id="oOxEvFH_zBwJxt1--HLs-114" value="" style="endArrow=none;html=1;rounded=0;exitX=1;exitY=0.5;exitDx=0;exitDy=0;entryX=0;entryY=0.5;entryDx=0;entryDy=0;edgeStyle=orthogonalEdgeStyle;" edge="1" parent="1" source="oOxEvFH_zBwJxt1--HLs-109" target="oOxEvFH_zBwJxt1--HLs-2">
          <mxGeometry relative="1" as="geometry">
            <mxPoint x="490" y="790" as="sourcePoint" />
            <mxPoint x="650" y="790" as="targetPoint" />
          </mxGeometry>
        </mxCell>
        <mxCell id="oOxEvFH_zBwJxt1--HLs-115" value="" style="endArrow=none;html=1;rounded=0;exitX=1;exitY=0.5;exitDx=0;exitDy=0;entryX=0;entryY=0.5;entryDx=0;entryDy=0;edgeStyle=orthogonalEdgeStyle;" edge="1" parent="1" source="oOxEvFH_zBwJxt1--HLs-111" target="oOxEvFH_zBwJxt1--HLs-2">
          <mxGeometry relative="1" as="geometry">
            <mxPoint x="490" y="790" as="sourcePoint" />
            <mxPoint x="650" y="790" as="targetPoint" />
          </mxGeometry>
        </mxCell>
        <mxCell id="oOxEvFH_zBwJxt1--HLs-116" value="" style="endArrow=none;html=1;rounded=0;exitX=1;exitY=0.5;exitDx=0;exitDy=0;entryX=0;entryY=0.5;entryDx=0;entryDy=0;edgeStyle=orthogonalEdgeStyle;" edge="1" parent="1" source="oOxEvFH_zBwJxt1--HLs-112" target="oOxEvFH_zBwJxt1--HLs-2">
          <mxGeometry relative="1" as="geometry">
            <mxPoint x="490" y="790" as="sourcePoint" />
            <mxPoint x="650" y="790" as="targetPoint" />
          </mxGeometry>
        </mxCell>
        <mxCell id="oOxEvFH_zBwJxt1--HLs-117" value="creates" style="shape=rhombus;perimeter=rhombusPerimeter;whiteSpace=wrap;html=1;align=center;" vertex="1" parent="1">
          <mxGeometry x="490" y="930" width="120" height="60" as="geometry" />
        </mxCell>
      </root>
    </mxGraphModel>
  </diagram>
</mxfile>
